<svg xmlns="http://www.w3.org/2000/svg" viewBox="0 0 512 512"><path d="M220.719 61.605C189.944 100.28 178.294 150.754 189.119 199.029 192.969 216.104 201.545 236.704 210.545 250.854L215.219 258.203 178.045 295.379 172.119 292.379C166.944 289.704 165.369 289.354 158.869 289.354 145.045 289.354 148.944 286.029 72.195 362.953 -3.879 439.202 0.371 434.277 0.371 448.027 0.296 460.352 1.797 462.701 25.547 486.451 45.547 506.351 49.447 509.452 56.971 511.352 62.471 512.777 71.369 511.777 77.119 509.102 81.619 507.052 90.695 498.352 149.619 439.527 226.044 363.128 222.793 367.028 222.693 353.203 222.693 346.778 222.394 345.202 219.719 340.027L216.693 334.027 253.943 296.854 261.293 301.529C326.84 343.445 414.352 330.329 463.541 279.279 538.817 205.541 523.033 83.908 439.541 27.781 370.684 -18.703 274.813 -6.172 220.719 61.605ZM42.42 24.697C37.664 24.72 32.992 25.04 28.439 25.705 28.439 25.705 43.488 51.789 52.016 81.385 60.543 110.98 64.557 132.551 64.557 132.551 51.005 163.155 45.122 196.218 36.465 228.359 36.465 228.359 48.003 260.462 55.025 288.553 59.823 311.531 66.134 326.692 58.645 348.221 94.143 312.639 114.992 291.564 126.186 282.061 142.859 267.905 151.507 269.354 158.869 269.354 165.354 269.354 169.432 269.884 173.771 271.367L190.006 255.131C181.213 239.66 173.43 220.371 169.609 203.428 157.34 135.287 172.82 87.156 217.805 34.873 195.733 41.922 153.291 50.496 141.303 52.291 113.054 39.005 75.711 24.54 42.42 24.697ZM423.592 49.781C480.866 88.181 500.841 160.854 471.191 222.779 452.191 261.828 415.691 289.679 372.941 297.604 320.601 302.87 282.937 292.792 245.693 252.879 204.269 205.355 200.944 135.532 237.619 84.182 275.333 30.686 359.241 6.212 423.592 49.781ZM469.428 301.217C457.84 311.636 444.844 320.476 430.699 327.205 407.925 338.606 388.463 343.99 362.307 346.207L362.299 346.209H362.293C326.863 349.189 288.056 340.051 256.953 322.105L240.701 338.324C242.206 342.743 242.693 346.809 242.693 353.203V353.059C242.747 360.467 244.231 369.162 230.113 385.828 220.589 397.072 199.565 417.879 163.76 453.672L163.754 453.676C161.168 456.261 158.586 458.852 156.002 461.439 164.379 461.361 218.944 448.784 240.121 436.529 240.121 436.529 251.158 437.533 285.268 449.07 319.377 460.607 343.957 466.125 343.957 466.125 343.957 466.125 370.041 460.607 396.125 454.588 422.209 448.568 449.295 438.535 449.295 438.535 449.295 438.535 447.79 428.503 457.822 389.377 467.855 350.251 475.379 333.197 475.379 333.197 475.379 333.197 474.342 324.98 469.428 301.217z"/></svg>
