<?xml version="1.0" encoding="UTF-8" standalone="no"?>
<svg
   viewBox="0 0 448 512"
   version="1.1"
   id="svg1"
   sodipodi:docname="rss.svg"
   inkscape:version="1.4 (e7c3feb100, 2024-10-09)"
   xmlns:inkscape="http://www.inkscape.org/namespaces/inkscape"
   xmlns:sodipodi="http://sodipodi.sourceforge.net/DTD/sodipodi-0.dtd"
   xmlns="http://www.w3.org/2000/svg"
   xmlns:svg="http://www.w3.org/2000/svg">
  <defs
     id="defs1" />
  <sodipodi:namedview
     id="namedview1"
     pagecolor="#ffffff"
     bordercolor="#000000"
     borderopacity="0.25"
     inkscape:showpageshadow="2"
     inkscape:pageopacity="0.0"
     inkscape:pagecheckerboard="0"
     inkscape:deskcolor="#d1d1d1"
     inkscape:zoom="1.794163"
     inkscape:cx="200.37199"
     inkscape:cy="305.15622"
     inkscape:window-width="1880"
     inkscape:window-height="984"
     inkscape:window-x="20"
     inkscape:window-y="44"
     inkscape:window-maximized="0"
     inkscape:current-layer="svg1" />
  <path
     d="M 0,64 C 0,46.3 14.3,32 32,32 261.8,32 448,218.2 448,448 448,465.7 433.7,480 416,480 398.3,480 384,465.7 384,448 384,253.6 226.4,96 32,96 14.3,96 0,81.7 0,64 Z M 128,416 C 128,451.34625 99.346223,479.99997 64,479.99997 28.653777,479.99997 0,451.34625 0,416 0,380.65375 28.653777,352.00003 64,352.00003 99.346223,352.00003 128,380.65375 128,416 Z"
     id="path1"
     sodipodi:nodetypes="ssssssssssss" />
  <path
     style="stroke-linecap:round;stroke-linejoin:round"
     d="M 32,192 A 32,32 0 0 0 0,224 32,32 0 0 0 32,256 C 138.4177,256 224,341.5823 224,448 A 32,32 0 0 0 256,480 32,32 0 0 0 288,448 C 288,306.99413 173.00587,192 32,192 Z"
     id="path6" />
</svg>
