<svg xmlns="http://www.w3.org/2000/svg" viewBox="0 0 512 512"><path d="M512,99.338C512,101.184 511.415,102.85 510.289,104.381 509.118,105.867 507.902,106.633 506.506,106.633 495.294,107.714 486.062,111.316 478.947,117.485 471.788,123.609 464.447,135.363 456.837,152.654L340.658,414.463C339.892,416.895 337.776,418.111 334.264,418.111 331.517,418.111 329.4,416.895 327.869,414.463L262.71,278.2 187.778,414.463C186.247,416.895 184.131,418.111 181.384,418.111 178.052,418.111 175.845,416.895 174.764,414.463L60.611,152.654C53.497,136.398 45.976,125.05 38.051,118.611 30.171,112.172 19.138,108.164 5.043,106.633 3.828,106.633 2.657,106.002 1.621,104.697 0.54,103.436 -0,101.95 -0,100.284 -0,96.006 1.216,93.889 3.647,93.889 13.824,93.889 24.452,94.339 35.574,95.24 45.886,96.186 55.613,96.636 64.709,96.636 73.986,96.636 84.928,96.186 97.537,95.24 110.731,94.339 122.439,93.889 132.616,93.889 135.047,93.889 136.263,96.006 136.263,100.284 136.263,104.516 135.498,106.633 134.012,106.633 123.835,107.398 115.819,110.01 109.965,114.378 104.111,118.791 101.184,124.555 101.184,131.715 101.184,135.363 102.4,139.911 104.832,145.359L199.171,358.4 252.713,257.261 202.819,152.654C193.858,134.012 186.472,121.943 180.709,116.54 174.945,111.181 166.209,107.849 154.501,106.633 153.42,106.633 152.429,106.002 151.439,104.697 150.448,103.436 149.953,101.95 149.953,100.284 149.953,96.006 150.988,93.889 153.15,93.889 163.327,93.889 172.648,94.339 181.159,95.24 189.354,96.186 198.09,96.636 207.367,96.636 216.463,96.636 226.1,96.186 236.277,95.24 246.769,94.339 257.081,93.889 267.258,93.889 269.689,93.889 270.905,96.006 270.905,100.284 270.905,104.516 270.185,106.633 268.654,106.633 248.3,108.029 238.123,113.793 238.123,123.97 238.123,128.518 240.464,135.588 245.193,145.134L278.2,212.14 311.028,150.853C315.576,142.207 317.872,134.912 317.872,128.968 317.872,115.009 307.695,107.579 287.341,106.633 285.495,106.633 284.595,104.516 284.595,100.284 284.595,98.752 285.045,97.312 285.945,95.961 286.891,94.565 287.792,93.889 288.692,93.889 295.987,93.889 304.948,94.339 315.576,95.24 325.753,96.186 334.128,96.636 340.658,96.636 345.341,96.636 352.276,96.231 361.372,95.465 372.9,94.43 382.582,93.889 390.327,93.889 392.128,93.889 393.029,95.69 393.029,99.338 393.029,104.201 391.363,106.633 388.03,106.633 376.187,107.849 366.641,111.136 359.436,116.45 352.231,121.763 343.225,133.831 332.462,152.654L288.692,233.575 347.953,354.302 435.448,150.853C438.465,143.423 439.996,136.578 439.996,130.364 439.996,115.459 429.819,107.579 409.465,106.633 407.619,106.633 406.718,104.516 406.718,100.284 406.718,96.006 408.069,93.889 410.816,93.889 418.246,93.889 427.072,94.339 437.249,95.24 446.66,96.186 454.586,96.636 460.935,96.636 467.645,96.636 475.39,96.186 484.171,95.24 493.312,94.339 501.508,93.889 508.803,93.889 510.919,93.889 512,95.69 512,99.338z"/></svg>
